<svg width="177" height="26" viewBox="0 0 354 53" fill="none" xmlns="http://www.w3.org/2000/svg">
<path d="M10.2424 38.0114H3.36221V3.3631H50.6378V38.0114H26.3193L13.3332 50.583L15.6735 53L27.6807 41.373H54V0H0V41.373H11.9242V38.0114H10.2424Z" fill="#455AFB"/>
<path d="M0 3.36162H30.0582V0H0" transform="translate(11.7344 10.6854)" fill="#455AFB"/>
<path d="M0 3.3631H10.0866V0H0" transform="translate(11.7344 19.0368)" fill="#455AFB"/>
<path d="M0 3.3631H15.4629V0H0" transform="translate(26.4497 19.0368)" fill="#455AFB"/>
<path d="M0 3.36162H17.5763V0H0" transform="translate(11.7344 27.3911)" fill="#455AFB"/>
<path d="M0 3.36162H8.45076V0H0" transform="translate(33.3416 27.3911)" fill="#455AFB"/>
<path d="M0 17.966C0 18.226 0.208 18.46 0.494 18.46H2.886C3.146 18.46 3.38 18.226 3.38 17.966V11.856H6.63C9.802 11.856 12.428 9.23 12.428 6.006C12.428 2.86 9.802 0.259999 6.604 0.259999H0.494C0.208 0.259999 0 0.494 0 0.754V17.966ZM3.38 8.684V3.458H6.396C7.852 3.458 9.074 4.55 9.074 5.98C9.074 7.514 7.852 8.684 6.396 8.684H3.38Z" transform="translate(79.366 12.54)" fill="#232535"/>
<path d="M20.5867 17.966C20.5867 18.226 20.7947 18.46 21.0807 18.46H23.4727C23.7327 18.46 23.9667 18.226 23.9667 17.966V11.336H26.8527L30.3107 18.226C30.3627 18.33 30.4927 18.46 30.7267 18.46H33.4567C33.8987 18.46 34.0807 18.044 33.8987 17.706L30.3367 11.102C32.5987 10.192 34.1847 8.242 34.1847 5.85C34.1847 2.756 31.6367 0.259999 28.5167 0.259999H21.0807C20.7947 0.259999 20.5867 0.494 20.5867 0.754V17.966ZM23.9927 8.554V3.38H28.2307C29.6087 3.38 30.8047 4.524 30.8047 5.902C30.8047 7.358 29.6087 8.554 28.2307 8.554H23.9927Z" transform="translate(79.366 12.54)" fill="#232535"/>
<path d="M41.8031 9.386C41.8031 14.586 45.9371 18.72 51.1371 18.72C56.3371 18.72 60.4971 14.586 60.4971 9.386C60.4971 4.186 56.3371 0 51.1371 0C45.9371 0 41.8031 4.186 41.8031 9.386ZM45.1831 9.386C45.1831 6.11 47.8611 3.38 51.1371 3.38C54.4131 3.38 57.1171 6.11 57.1171 9.386C57.1171 12.662 54.4131 15.34 51.1371 15.34C47.8611 15.34 45.1831 12.662 45.1831 9.386Z" transform="translate(79.366 12.54)" fill="#232535"/>
<path d="M65.9098 16.822C66.3518 17.368 67.5998 18.72 69.8618 18.72C72.9038 18.72 75.3218 16.64 75.3218 13.026V0.754C75.3218 0.494 75.1138 0.259999 74.8278 0.259999H72.3838C72.0978 0.259999 71.8898 0.494 71.8898 0.754V13.026C71.8898 14.82 70.8238 15.652 69.8098 15.652C68.9518 15.652 68.4318 15.184 68.0938 14.82C67.8598 14.586 67.5998 14.534 67.3138 14.794L65.9618 16.172C65.8058 16.354 65.7798 16.614 65.9098 16.822Z" transform="translate(79.366 12.54)" fill="#232535"/>
<path d="M84.759 17.966C84.759 18.226 84.967 18.46 85.253 18.46H95.835C96.121 18.46 96.329 18.226 96.329 17.966V15.834C96.329 15.574 96.121 15.34 95.835 15.34H88.139V10.79H94.561C94.821 10.79 95.055 10.582 95.055 10.296V8.138C95.055 7.878 94.821 7.644 94.561 7.644H88.139V3.38H95.835C96.121 3.38 96.329 3.146 96.329 2.886V0.754C96.329 0.494 96.121 0.259999 95.835 0.259999H85.253C84.967 0.259999 84.759 0.494 84.759 0.754V17.966Z" transform="translate(79.366 12.54)" fill="#232535"/>
<path d="M103.842 9.386C103.842 14.586 108.028 18.72 113.228 18.72C115.542 18.72 117.778 17.914 119.546 16.198C119.728 16.016 119.78 15.678 119.572 15.496L117.96 13.832C117.804 13.676 117.518 13.65 117.31 13.832C116.218 14.716 114.892 15.314 113.332 15.314C110.004 15.314 107.508 12.558 107.508 9.308C107.508 6.032 109.978 3.25 113.306 3.25C114.762 3.25 116.218 3.822 117.31 4.784C117.518 4.992 117.778 4.992 117.96 4.784L119.546 3.146C119.754 2.938 119.754 2.626 119.52 2.418C117.752 0.832 115.854 0 113.228 0C108.028 0 103.842 4.186 103.842 9.386Z" transform="translate(79.366 12.54)" fill="#232535"/>
<path d="M130.585 17.966C130.585 18.226 130.819 18.46 131.079 18.46H133.497C133.757 18.46 133.991 18.226 133.991 17.966V3.38H137.969C138.255 3.38 138.463 3.146 138.463 2.886V0.754C138.463 0.494 138.255 0.259999 137.969 0.259999H126.607C126.321 0.259999 126.113 0.494 126.113 0.754V2.886C126.113 3.146 126.321 3.38 126.607 3.38H130.585V17.966Z" transform="translate(79.366 12.54)" fill="#232535"/>
<path d="M146.367 17.966C146.367 18.226 146.601 18.46 146.861 18.46H149.279C149.565 18.46 149.773 18.226 149.773 17.966V10.79H158.249V17.966C158.249 18.226 158.457 18.46 158.743 18.46H161.135C161.395 18.46 161.629 18.226 161.629 17.966V0.754C161.629 0.494 161.395 0.259999 161.135 0.259999H158.743C158.457 0.259999 158.249 0.494 158.249 0.754V7.644H149.773V0.754C149.773 0.494 149.565 0.259999 149.279 0.259999H146.861C146.601 0.259999 146.367 0.494 146.367 0.754V17.966Z" transform="translate(79.366 12.54)" fill="#232535"/>
<path d="M171.289 11.57C171.289 15.522 174.435 18.72 178.517 18.72C182.625 18.72 185.771 15.522 185.771 11.57V0.754C185.771 0.494 185.537 0.259999 185.277 0.259999H182.807C182.521 0.259999 182.313 0.494 182.313 0.754V11.414C182.313 13.598 180.779 15.34 178.517 15.34C176.255 15.34 174.747 13.598 174.747 11.388V0.754C174.747 0.494 174.539 0.259999 174.253 0.259999H171.783C171.523 0.259999 171.289 0.494 171.289 0.754V11.57Z" transform="translate(79.366 12.54)" fill="#232535"/>
<path d="M195.437 17.966C195.437 18.226 195.645 18.46 195.905 18.46H202.067C207.085 18.46 211.193 14.378 211.193 9.334C211.193 4.342 207.085 0.259999 202.067 0.259999H195.905C195.645 0.259999 195.437 0.494 195.437 0.754V17.966ZM198.791 15.288V3.406H201.755C205.135 3.406 207.605 5.954 207.605 9.334C207.605 12.74 205.135 15.288 201.755 15.288H198.791Z" transform="translate(79.366 12.54)" fill="#232535"/>
<path d="M219.832 17.966C219.832 18.226 220.04 18.46 220.3 18.46H226.462C231.48 18.46 235.588 14.378 235.588 9.334C235.588 4.342 231.48 0.259999 226.462 0.259999H220.3C220.04 0.259999 219.832 0.494 219.832 0.754V17.966ZM223.186 15.288V3.406H226.15C229.53 3.406 232 5.954 232 9.334C232 12.74 229.53 15.288 226.15 15.288H223.186Z" transform="translate(79.366 12.54)" fill="#232535"/>
<path d="M244.227 17.966C244.227 18.226 244.435 18.46 244.721 18.46H254.237C254.523 18.46 254.731 18.226 254.731 17.966V15.834C254.731 15.574 254.523 15.34 254.237 15.34H247.607V0.754C247.607 0.494 247.373 0.259999 247.113 0.259999H244.721C244.435 0.259999 244.227 0.494 244.227 0.754V17.966Z" transform="translate(79.366 12.54)" fill="#232535"/>
<path d="M262.554 17.966C262.554 18.226 262.762 18.46 263.048 18.46H273.63C273.916 18.46 274.124 18.226 274.124 17.966V15.834C274.124 15.574 273.916 15.34 273.63 15.34H265.934V10.79H272.356C272.616 10.79 272.85 10.582 272.85 10.296V8.138C272.85 7.878 272.616 7.644 272.356 7.644H265.934V3.38H273.63C273.916 3.38 274.124 3.146 274.124 2.886V0.754C274.124 0.494 273.916 0.259999 273.63 0.259999H263.048C262.762 0.259999 262.554 0.494 262.554 0.754V17.966Z" transform="translate(79.366 12.54)" fill="#232535"/>
</svg>
