<?xml version="1.0" encoding="UTF-8"?>
<svg width="176px" height="21px" viewBox="0 0 176 21" version="1.1" xmlns="http://www.w3.org/2000/svg" xmlns:xlink="http://www.w3.org/1999/xlink">
    <!-- Generator: Sketch 53.2 (72643) - https://sketchapp.com -->
    <title>dark</title>
    <desc>Created with Sketch.</desc>
    <g id="Page-1" stroke="none" stroke-width="1" fill="none" fill-rule="evenodd">
        <g id="dark" transform="translate(0.241439, 0.000000)" fill-rule="nonzero">
            <g id="project-huddle-dark" transform="translate(37.758561, 4.000000)" fill="#222222">
                <path d="M0.683,9.253 C0.683,9.383 0.787,9.5 0.93,9.5 L2.126,9.5 C2.256,9.5 2.373,9.383 2.373,9.253 L2.373,6.198 L3.998,6.198 C5.584,6.198 6.897,4.885 6.897,3.273 C6.897,1.7 5.584,0.3999995 3.985,0.3999995 L0.93,0.3999995 C0.787,0.3999995 0.683,0.517 0.683,0.647 L0.683,9.253 Z M2.373,4.612 L2.373,1.999 L3.881,1.999 C4.609,1.999 5.22,2.545 5.22,3.26 C5.22,4.027 4.609,4.612 3.881,4.612 L2.373,4.612 Z" id="Shape"></path>
                <path d="M10.97635,9.253 C10.97635,9.383 11.08035,9.5 11.22335,9.5 L12.41935,9.5 C12.54935,9.5 12.66635,9.383 12.66635,9.253 L12.66635,5.938 L14.10935,5.938 L15.83835,9.383 C15.86435,9.435 15.92935,9.5 16.04635,9.5 L17.41135,9.5 C17.63235,9.5 17.72335,9.292 17.63235,9.123 L15.85135,5.821 C16.98235,5.366 17.77535,4.391 17.77535,3.195 C17.77535,1.648 16.50135,0.3999995 14.94135,0.3999995 L11.22335,0.3999995 C11.08035,0.3999995 10.97635,0.517 10.97635,0.647 L10.97635,9.253 Z M12.67935,4.547 L12.67935,1.96 L14.79835,1.96 C15.48735,1.96 16.08535,2.532 16.08535,3.221 C16.08535,3.949 15.48735,4.547 14.79835,4.547 L12.67935,4.547 Z" id="Shape"></path>
                <path d="M21.58455,4.963 C21.58455,7.563 23.65155,9.63 26.25155,9.63 C28.85155,9.63 30.93155,7.563 30.93155,4.963 C30.93155,2.363 28.85155,0.27 26.25155,0.27 C23.65155,0.27 21.58455,2.363 21.58455,4.963 Z M23.27455,4.963 C23.27455,3.325 24.61355,1.96 26.25155,1.96 C27.88955,1.96 29.24155,3.325 29.24155,4.963 C29.24155,6.601 27.88955,7.94 26.25155,7.94 C24.61355,7.94 23.27455,6.601 23.27455,4.963 Z" id="Shape"></path>
                <path d="M33.6379,8.681 C33.8589,8.954 34.4829,9.63 35.6139,9.63 C37.1349,9.63 38.3439,8.59 38.3439,6.783 L38.3439,0.647 C38.3439,0.517 38.2399,0.3999995 38.0969,0.3999995 L36.8749,0.3999995 C36.7319,0.3999995 36.6279,0.517 36.6279,0.647 L36.6279,6.783 C36.6279,7.68 36.0949,8.096 35.5879,8.096 C35.1589,8.096 34.8989,7.862 34.7299,7.68 C34.6129,7.563 34.4829,7.537 34.3399,7.667 L33.6639,8.356 C33.5859,8.447 33.5729,8.577 33.6379,8.681 Z" id="Path"></path>
                <path d="M43.0625,9.253 C43.0625,9.383 43.1665,9.5 43.3095,9.5 L48.6005,9.5 C48.7435,9.5 48.8475,9.383 48.8475,9.253 L48.8475,8.187 C48.8475,8.057 48.7435,7.94 48.6005,7.94 L44.7525,7.94 L44.7525,5.665 L47.9635,5.665 C48.0935,5.665 48.2105,5.561 48.2105,5.418 L48.2105,4.339 C48.2105,4.209 48.0935,4.092 47.9635,4.092 L44.7525,4.092 L44.7525,1.96 L48.6005,1.96 C48.7435,1.96 48.8475,1.843 48.8475,1.713 L48.8475,0.647 C48.8475,0.517 48.7435,0.3999995 48.6005,0.3999995 L43.3095,0.3999995 C43.1665,0.3999995 43.0625,0.517 43.0625,0.647 L43.0625,9.253 Z" id="Path"></path>
                <path d="M52.604,4.963 C52.604,7.563 54.697,9.63 57.297,9.63 C58.454,9.63 59.572,9.227 60.456,8.369 C60.547,8.278 60.573,8.109 60.469,8.018 L59.663,7.186 C59.585,7.108 59.442,7.095 59.338,7.186 C58.792,7.628 58.129,7.927 57.349,7.927 C55.685,7.927 54.437,6.549 54.437,4.924 C54.437,3.286 55.672,1.895 57.336,1.895 C58.064,1.895 58.792,2.181 59.338,2.662 C59.442,2.766 59.572,2.766 59.663,2.662 L60.456,1.843 C60.56,1.739 60.56,1.583 60.443,1.479 C59.559,0.686 58.61,0.27 57.297,0.27 C54.697,0.27 52.604,2.363 52.604,4.963 Z" id="Path"></path>
                <path d="M65.9755,9.253 C65.9755,9.383 66.0925,9.5 66.2225,9.5 L67.4315,9.5 C67.5615,9.5 67.6785,9.383 67.6785,9.253 L67.6785,1.96 L69.6675,1.96 C69.8105,1.96 69.9145,1.843 69.9145,1.713 L69.9145,0.647 C69.9145,0.517 69.8105,0.3999995 69.6675,0.3999995 L63.9865,0.3999995 C63.8435,0.3999995 63.7395,0.517 63.7395,0.647 L63.7395,1.713 C63.7395,1.843 63.8435,1.96 63.9865,1.96 L65.9755,1.96 L65.9755,9.253 Z" id="Path"></path>
                <path d="M73.8665,9.253 C73.8665,9.383 73.9835,9.5 74.1135,9.5 L75.3225,9.5 C75.4655,9.5 75.5695,9.383 75.5695,9.253 L75.5695,5.665 L79.8075,5.665 L79.8075,9.253 C79.8075,9.383 79.9115,9.5 80.0545,9.5 L81.2505,9.5 C81.3805,9.5 81.4975,9.383 81.4975,9.253 L81.4975,0.647 C81.4975,0.517 81.3805,0.3999995 81.2505,0.3999995 L80.0545,0.3999995 C79.9115,0.3999995 79.8075,0.517 79.8075,0.647 L79.8075,4.092 L75.5695,4.092 L75.5695,0.647 C75.5695,0.517 75.4655,0.3999995 75.3225,0.3999995 L74.1135,0.3999995 C73.9835,0.3999995 73.8665,0.517 73.8665,0.647 L73.8665,9.253 Z" id="Path"></path>
                <path d="M86.3275,6.055 C86.3275,8.031 87.9005,9.63 89.9415,9.63 C91.9955,9.63 93.5685,8.031 93.5685,6.055 L93.5685,0.647 C93.5685,0.517 93.4515,0.3999995 93.3215,0.3999995 L92.0865,0.3999995 C91.9435,0.3999995 91.8395,0.517 91.8395,0.647 L91.8395,5.977 C91.8395,7.069 91.0725,7.94 89.9415,7.94 C88.8105,7.94 88.0565,7.069 88.0565,5.964 L88.0565,0.647 C88.0565,0.517 87.9525,0.3999995 87.8095,0.3999995 L86.5745,0.3999995 C86.4445,0.3999995 86.3275,0.517 86.3275,0.647 L86.3275,6.055 Z" id="Path"></path>
                <path d="M98.4015,9.253 C98.4015,9.383 98.5055,9.5 98.6355,9.5 L101.7165,9.5 C104.2255,9.5 106.2795,7.459 106.2795,4.937 C106.2795,2.441 104.2255,0.3999995 101.7165,0.3999995 L98.6355,0.3999995 C98.5055,0.3999995 98.4015,0.517 98.4015,0.647 L98.4015,9.253 Z M100.0785,7.914 L100.0785,1.973 L101.5605,1.973 C103.2505,1.973 104.4855,3.247 104.4855,4.937 C104.4855,6.64 103.2505,7.914 101.5605,7.914 L100.0785,7.914 Z" id="Shape"></path>
                <path d="M110.599,9.253 C110.599,9.383 110.703,9.5 110.833,9.5 L113.914,9.5 C116.423,9.5 118.477,7.459 118.477,4.937 C118.477,2.441 116.423,0.3999995 113.914,0.3999995 L110.833,0.3999995 C110.703,0.3999995 110.599,0.517 110.599,0.647 L110.599,9.253 Z M112.276,7.914 L112.276,1.973 L113.758,1.973 C115.448,1.973 116.683,3.247 116.683,4.937 C116.683,6.64 115.448,7.914 113.758,7.914 L112.276,7.914 Z" id="Shape"></path>
                <path d="M122.7965,9.253 C122.7965,9.383 122.9005,9.5 123.0435,9.5 L127.8015,9.5 C127.9445,9.5 128.0485,9.383 128.0485,9.253 L128.0485,8.187 C128.0485,8.057 127.9445,7.94 127.8015,7.94 L124.4865,7.94 L124.4865,0.647 C124.4865,0.517 124.3695,0.3999995 124.2395,0.3999995 L123.0435,0.3999995 C122.9005,0.3999995 122.7965,0.517 122.7965,0.647 L122.7965,9.253 Z" id="Path"></path>
                <path d="M131.96,9.253 C131.96,9.383 132.064,9.5 132.207,9.5 L137.498,9.5 C137.641,9.5 137.745,9.383 137.745,9.253 L137.745,8.187 C137.745,8.057 137.641,7.94 137.498,7.94 L133.65,7.94 L133.65,5.665 L136.861,5.665 C136.991,5.665 137.108,5.561 137.108,5.418 L137.108,4.339 C137.108,4.209 136.991,4.092 136.861,4.092 L133.65,4.092 L133.65,1.96 L137.498,1.96 C137.641,1.96 137.745,1.843 137.745,1.713 L137.745,0.647 C137.745,0.517 137.641,0.3999995 137.498,0.3999995 L132.207,0.3999995 C132.064,0.3999995 131.96,0.517 131.96,0.647 L131.96,9.253 Z" id="Path"></path>
            </g>
            <g id="happy-comment" transform="translate(12.000000, 10.500000) scale(-1, 1) translate(-12.000000, -10.500000) " fill="#455AFB">
                <path d="M23.4592508,14.087066 L23.4885204,14.0755616 L23.4885204,19.4545215 C23.4885204,20.1023313 22.9633668,20.6274849 22.3155569,20.6274849 C22.0044677,20.6274849 21.7061198,20.5039052 21.4861465,20.2839319 L18.7966665,17.5944519 L3.51889039,17.5944519 C1.57546089,17.5944519 0,16.018991 0,14.0755616 L0,3.51889039 C0,1.57546089 1.57546089,0 3.51889039,0 L19.9403789,0 C21.8838083,0 23.4592693,1.57546089 23.4592693,3.51889039 L23.4592693,14.0755616 C23.4592693,14.0793978 23.4592632,14.0832326 23.4592508,14.087066 Z M4.88885272,8.86138731 C6.65959539,11.5175013 8.96809005,12.9025981 11.7296346,12.9025981 C14.4911792,12.9025981 16.7996738,11.5175013 18.5704165,8.86138731 C18.9297568,8.32237693 18.7841054,7.59411988 18.245095,7.23477965 C17.7060846,6.87543941 16.9778276,7.02109082 16.6184873,7.56010117 C15.2613274,9.59584108 13.6599439,10.5566712 11.7296346,10.5566712 C9.79932537,10.5566712 8.19794181,9.59584108 6.8407819,7.56010117 C6.48144167,7.02109082 5.75318461,6.87543941 5.21417425,7.23477965 C4.6751639,7.59411988 4.52951248,8.32237693 4.88885272,8.86138731 Z" id="Shape"></path>
            </g>
        </g>
    </g>
</svg>